<?xml version="1.0" standalone="no"?>
<!DOCTYPE svg PUBLIC "-//W3C//DTD SVG 20010904//EN"
 "http://www.w3.org/TR/2001/REC-SVG-20010904/DTD/svg10.dtd">
<svg version="1.0" xmlns="http://www.w3.org/2000/svg"
 width="500.000000pt" height="500.000000pt" viewBox="0 0 500.000000 500.000000"
 preserveAspectRatio="xMidYMid meet">

<g transform="translate(0.000000,500.000000) scale(0.100000,-0.100000)"
fill="#000000" stroke="none">
<path d="M2505 4978 c-27 -5 -120 -25 -205 -43 -85 -19 -186 -39 -225 -45 -38
-6 -74 -15 -80 -19 -12 -10 -191 -81 -203 -81 -5 0 -23 22 -40 49 -62 100
-157 133 -254 89 -106 -49 -170 -130 -171 -216 0 -51 26 -114 62 -146 26 -24
26 -38 1 -61 -10 -9 -26 -39 -35 -66 -9 -27 -19 -49 -22 -49 -14 0 -93 117
-93 137 0 7 18 33 39 56 l39 43 -42 48 c-38 45 -44 48 -65 37 -30 -16 -61 -69
-61 -105 0 -28 -1 -28 -18 -13 -25 23 -31 22 -79 -21 l-42 -37 102 -126 c165
-203 155 -193 173 -179 13 11 13 10 4 -14 -20 -54 -52 -193 -59 -261 -4 -38
-4 -112 1 -164 9 -87 8 -95 -11 -115 -39 -41 -59 -107 -66 -218 -7 -104 -7
-106 -33 -113 -46 -11 -103 -55 -118 -90 -20 -49 -17 -84 12 -142 20 -41 35
-56 70 -73 60 -30 122 -17 206 42 15 11 23 8 50 -18 42 -39 83 -64 104 -64 8
0 21 -14 27 -31 12 -31 11 -31 69 -12 14 4 17 -1 15 -23 -1 -16 -5 -31 -8 -34
-19 -16 -49 -109 -49 -154 0 -60 -18 -92 -57 -99 -192 -36 -317 -82 -398 -147
l-40 -32 -105 6 c-58 4 -124 6 -148 6 -23 0 -58 7 -78 15 -46 19 -117 19 -169
-1 -22 -9 -77 -19 -122 -24 -94 -9 -185 -51 -222 -101 -13 -17 -41 -39 -64
-50 -23 -11 -54 -27 -69 -35 l-28 -15 0 -1135 0 -1134 2500 0 2500 0 0 1774 0
1773 -97 48 c-63 30 -120 50 -158 56 -130 18 -177 28 -193 42 -10 7 -52 22
-95 32 -93 21 -220 80 -262 122 -41 41 -74 58 -88 44 -7 -7 9 -30 52 -77 34
-36 60 -69 57 -72 -3 -3 -29 7 -56 22 -159 87 -295 5 -345 -206 -21 -89 -19
-202 4 -268 36 -103 71 -254 62 -263 -9 -9 -93 0 -193 19 -33 7 -36 15 -49
133 l-10 96 36 32 37 32 -30 15 c-16 8 -49 18 -71 22 -36 6 -45 12 -61 45 -11
21 -20 43 -20 49 0 6 25 46 55 89 69 99 85 137 85 204 0 61 -12 100 -63 208
-61 130 -97 214 -85 199 7 -9 35 -44 61 -78 27 -34 52 -62 56 -62 4 0 22 5 40
11 27 10 31 15 27 38 -3 14 -8 55 -11 91 l-6 65 32 -77 c34 -84 42 -89 95 -60
l32 17 -58 140 c-38 93 -62 139 -71 137 -8 -1 -37 -12 -65 -23 l-50 -20 12
-87 c6 -48 11 -88 9 -90 -1 -2 -26 29 -55 68 -57 77 -52 76 -137 39 -24 -10
-43 -23 -43 -28 0 -5 9 -31 20 -57 11 -26 18 -49 15 -52 -2 -3 -23 3 -45 13
-39 18 -41 20 -80 142 -23 69 -61 161 -85 206 -24 45 -54 109 -66 142 -28 77
-47 98 -138 148 -41 22 -101 62 -135 88 -34 26 -73 57 -88 69 -15 12 -42 26
-60 31 -40 11 -146 10 -213 -3z m-896 -204 c23 -26 41 -50 41 -53 0 -6 -113
-81 -122 -81 -14 0 -68 86 -68 107 0 34 43 73 79 73 22 0 39 -11 70 -46z
m2523 -1086 c-7 -7 -12 -20 -12 -30 0 -11 -7 -18 -20 -18 -11 0 -20 5 -20 10
0 15 33 48 50 49 11 1 11 -2 2 -11z m-2926 -464 c31 -47 35 -59 26 -78 -6 -13
-25 -28 -42 -35 -29 -10 -35 -8 -60 18 -52 51 -50 119 5 141 31 13 32 13 71
-46z m986 -128 c4 -6 8 -27 8 -46 0 -19 12 -83 27 -141 26 -103 26 -107 9
-143 -18 -38 -60 -67 -92 -62 -10 2 -24 -4 -31 -13 -19 -27 -26 9 -14 71 32
152 35 194 17 201 -9 4 -16 2 -16 -3 0 -6 -4 -10 -9 -10 -5 0 -7 9 -4 20 3 11
1 20 -5 20 -11 0 -22 -33 -22 -68 0 -13 -4 -20 -10 -17 -6 3 -10 -5 -10 -19 0
-14 -3 -27 -8 -30 -20 -12 -4 74 20 111 15 23 34 58 43 79 23 55 44 76 69 68
12 -4 24 -12 28 -18z m-344 -87 c10 -16 19 -19 45 -14 25 4 28 3 15 -5 -9 -5
-37 -13 -62 -16 -38 -6 -46 -4 -46 9 0 47 26 61 48 26z m-35 -161 c8 -21 -10
-23 -35 -4 -21 15 -23 33 -6 38 15 5 31 -9 41 -34z m-263 7 c0 -8 -4 -15 -10
-15 -5 0 -7 7 -4 15 4 8 8 15 10 15 2 0 4 -7 4 -15z m446 -38 c-15 -37 -66
-77 -53 -42 4 9 7 24 7 33 0 13 2 14 9 4 6 -10 12 -7 24 12 10 14 17 31 18 38
0 9 2 9 5 1 3 -6 -2 -27 -10 -46z m-286 -57 c0 -5 -5 -10 -11 -10 -6 0 -9 -7
-6 -15 7 -17 -9 -30 -18 -16 -3 6 0 19 7 31 14 21 28 27 28 10z m43 -91 c-5
-4 -20 -11 -35 -14 -34 -9 -37 6 -6 37 20 20 22 20 35 3 7 -11 10 -22 6 -26z
m421 -74 c21 -33 20 -61 -4 -85 -33 -33 -50 -16 -50 51 0 51 3 59 19 59 10 0
26 -11 35 -25z m229 -107 c-29 -28 -40 -33 -98 -36 -83 -5 -87 13 -4 22 38 5
62 12 66 21 3 8 9 13 13 10 5 -3 11 -1 15 5 3 5 14 10 23 10 12 0 8 -8 -15
-32z m53 -171 c-6 -9 -12 -13 -14 -7 -2 6 -10 6 -23 0 -10 -6 -19 -8 -19 -5 0
4 -6 3 -12 -2 -20 -12 -50 -15 -85 -8 -75 14 -5 40 106 40 53 0 57 -2 47 -18z
m-876 -22 c-5 -13 -13 -32 -18 -42 -6 -10 -15 -31 -22 -48 -8 -18 -15 -25 -17
-17 -3 8 0 19 6 25 6 6 11 18 11 26 0 8 -11 0 -25 -19 -23 -31 -36 -88 -17
-76 4 2 9 -4 9 -15 3 -31 -13 -22 -24 16 -12 38 -5 82 21 130 15 30 31 40 66
42 16 1 18 -2 10 -22z m670 -7 c0 -6 -6 -5 -15 2 -8 7 -15 14 -15 16 0 2 7 1
15 -2 8 -4 15 -11 15 -16z m-517 -162 c-30 -35 -43 -37 -43 -6 0 18 25 34 40
25 5 -3 11 -1 15 5 3 5 9 10 12 10 3 0 -8 -15 -24 -34z m-116 -358 c-3 -8 -6
-5 -6 6 -1 11 2 17 5 13 3 -3 4 -12 1 -19z m-137 -7 c0 -11 -4 -22 -9 -25 -12
-8 -34 21 -26 34 11 17 35 11 35 -9z m110 -1 c0 -12 -42 -51 -48 -45 -7 7 27
55 38 55 6 0 10 -4 10 -10z m-140 -55 c0 -12 -6 -27 -12 -34 -10 -11 -10 -14
0 -18 6 -3 12 -10 12 -17 0 -16 -41 -50 -63 -51 -24 -2 -35 25 -14 36 31 18
59 77 52 111 -6 31 -5 32 10 14 8 -11 15 -29 15 -41z m138 -19 c-8 -6 -21 -24
-29 -40 -8 -16 -18 -28 -24 -27 -5 1 -13 -8 -17 -21 -5 -18 -6 -16 -7 13 -1
22 5 42 14 49 12 10 13 15 4 20 -6 4 2 8 17 8 15 0 30 5 32 11 2 6 9 8 14 5 7
-5 6 -11 -4 -18z m1202 -90 c0 -3 -4 -8 -10 -11 -5 -3 -10 -1 -10 4 0 6 5 11
10 11 6 0 10 -2 10 -4z m-1242 -88 c-6 -18 -28 -21 -28 -4 0 9 7 16 16 16 9 0
14 -5 12 -12z m132 -417 c0 -34 -15 -70 -31 -74 -24 -6 -26 24 -3 58 16 25 34
33 34 16z m540 -1031 c0 -13 -1 -13 -10 0 -5 8 -10 22 -10 30 0 13 1 13 10 0
5 -8 10 -22 10 -30z"/>
<path d="M4425 4691 c-46 -21 -92 -70 -102 -109 -14 -56 36 -165 90 -193 52
-28 165 2 201 52 11 16 19 19 28 12 12 -10 58 -1 58 11 0 5 -61 150 -66 155
-2 2 -26 -6 -53 -18 -27 -11 -61 -25 -75 -31 -23 -8 -24 -12 -15 -40 13 -35
11 -35 49 -15 29 15 30 14 30 -5 0 -30 -61 -57 -94 -42 -26 11 -56 68 -56 103
0 43 77 78 107 48 13 -13 93 18 93 36 0 8 -12 23 -26 34 -34 27 -113 28 -169
2z"/>
<path d="M4177 4587 c-32 -13 -32 -21 2 -105 l21 -54 -89 48 -89 47 -39 -16
c-21 -9 -37 -21 -35 -29 5 -21 103 -262 111 -270 3 -3 23 1 44 9 42 17 42 16
8 101 -11 28 -20 52 -18 52 1 0 40 -20 86 -44 83 -43 84 -43 122 -28 22 8 39
20 39 26 0 28 -108 271 -121 273 -8 0 -27 -4 -42 -10z"/>
<path d="M777 4505 c-42 -37 -43 -44 -6 -117 l19 -37 -27 -19 -26 -19 33 -42
c30 -37 35 -40 50 -26 9 8 21 15 26 15 5 0 38 -36 74 -81 36 -45 74 -87 85
-95 26 -18 69 -18 106 2 36 18 109 83 109 96 0 5 -12 25 -26 43 l-26 34 -28
-20 c-38 -29 -55 -20 -118 59 l-53 66 32 27 c36 29 36 28 -14 86 l-20 22 -29
-24 c-16 -14 -33 -25 -36 -25 -4 0 -22 21 -41 45 -18 25 -36 45 -40 45 -3 -1
-23 -16 -44 -35z"/>
<path d="M3828 4443 c-21 -9 -38 -21 -38 -28 0 -16 99 -257 110 -269 8 -8 64
8 83 24 8 7 -102 291 -112 289 -3 -1 -23 -8 -43 -16z"/>
<path d="M595 4196 c-63 -29 -140 -104 -155 -152 -28 -85 7 -178 92 -247 51
-41 125 -48 192 -19 63 29 151 114 172 168 17 46 14 97 -9 128 -12 16 -17 14
-67 -27 -49 -41 -54 -49 -52 -80 3 -28 -2 -39 -28 -61 -37 -30 -66 -33 -99 -7
l-24 18 93 77 c51 42 104 85 117 95 12 11 23 23 23 29 0 14 -77 81 -106 92
-42 16 -96 11 -149 -14z m79 -109 c17 -12 14 -17 -40 -60 -32 -25 -62 -44 -66
-41 -20 13 -7 63 23 88 34 29 56 32 83 13z"/>
<path d="M143 3988 c-48 -39 -89 -72 -91 -73 -1 -1 26 -65 62 -141 35 -76 62
-141 61 -142 -2 -2 -36 20 -77 50 -40 30 -79 57 -86 62 -9 5 -12 -12 -12 -76
l1 -83 130 -93 131 -93 53 41 53 41 -65 147 c-35 81 -67 154 -70 162 -4 8 14
-12 39 -45 82 -110 160 -200 171 -197 23 7 118 96 113 108 -2 6 -77 100 -165
208 l-160 196 -88 -72z"/>
<path d="M0 3454 c0 -117 0 -117 33 -160 17 -24 36 -44 40 -44 11 0 116 83
116 93 1 9 -164 213 -180 222 -5 4 -9 -41 -9 -111z"/>
<path d="M793 3210 c-54 -12 -119 -57 -137 -94 -23 -48 -20 -84 12 -147 34
-68 75 -92 146 -85 110 12 187 97 167 185 -24 107 -96 162 -188 141z m75 -132
c27 -53 23 -80 -14 -104 -36 -24 -70 -11 -94 36 -11 21 -20 50 -20 64 0 32 36
58 75 54 25 -2 34 -11 53 -50z"/>
<path d="M390 3043 c-47 -19 -89 -38 -93 -42 -7 -7 99 -291 108 -291 7 0 199
82 215 92 11 7 25 25 31 41 17 41 -9 95 -52 104 -21 4 -27 9 -20 16 18 18 13
75 -9 97 -29 29 -81 24 -180 -17z m108 -65 c2 -12 -8 -23 -33 -35 -31 -15 -37
-15 -45 -3 -16 25 -11 38 18 48 36 14 56 10 60 -10z m52 -109 c0 -14 -11 -25
-37 -35 -34 -15 -38 -15 -50 2 -18 25 -17 29 15 41 46 18 72 16 72 -8z"/>
</g>
</svg>
